{"title":"Mithya 2008 DVDRip Hindi [K9]","uid":8881363,"size":984020989,"categoryP":"video","categoryS":"movies","magnet":"?xt=urn:btih:8c425443ed3a0424a26f76f217023c57402cb84e&amp;dn=Mithya+2008+DVDRip+Hindi+%5BK9%5D&amp;tr=udp%3A%2F%2Ftracker.openbittorrent.com%3A80&amp;tr=udp%3A%2F%2Fopen.demonii.com%3A1337&amp;tr=udp%3A%2F%2Ftracker.coppersurfer.tk%3A6969&amp;tr=udp%3A%2F%2Fexodus.desync.com%3A6969","seeders":1,"leechers":1,"uploader":"k9ateam","files":-1,"time":1378331392,"description":"Mithya is a 2008 Indian film co-written and directed by Rajat Kapoor and produced by Planman Motion Pictures. The film stars Ranvir Shorey, Neha Dhupia, Naseeruddin Shah and Vinay Pathak in pivotal roles. \n\nA struggling actor(Ranvir Shorey) gets caught up with the 'wrong people' because his face is identical to an underworld don Raje. An opposing gang plan to murder the don and put the actor in place of him at the helm of the don's empire and act as their puppet. But, things don't always go according to plan.\n\nGeneral\nFormat                                   : MPEG-4\nFormat profile                           : Base Media / Version 2\nCodec ID                                 : mp42\nFile size                                : 938 MiB\nDuration                                 : 58mn 13s\nOverall bit rate mode                    : Variable\nOverall bit rate                         : 2 253 Kbps\nEncoded date                             : UTC 2013-09-04 18:17:34\nTagged date                              : UTC 2013-09-04 18:35:26\nWriting application                      : HandBrake 0.9.6 2012022800\n\nScreenShots: &lt;a href=&quot;\nhttp://i.imgur.com/J8M0YGQ.png&quot; rel=&quot;nofollow&quot; target=&quot;_NEW&quot;&gt;\nhttp://i.imgur.com/J8M0YGQ.png&lt;/a&gt; &lt;a href=&quot;\nhttp://i.imgur.com/oQfL1zZ.png&quot; rel=&quot;nofollow&quot; target=&quot;_NEW&quot;&gt;\nhttp://i.imgur.com/oQfL1zZ.png&lt;/a&gt; &lt;a href=&quot;\nhttp://i.imgur.com/kxGEqN8.png&quot; rel=&quot;nofollow&quot; target=&quot;_NEW&quot;&gt;\nhttp://i.imgur.com/kxGEqN8.png&lt;/a&gt; &lt;a href=&quot;\nhttp://i.imgur.com/Lb8qJQv.png&quot; rel=&quot;nofollow&quot; target=&quot;_NEW&quot;&gt;\nhttp://i.imgur.com/Lb8qJQv.png&lt;/a&gt;\n\nVideo\nID                                       : 1\nFormat                                   : AVC\nFormat/Info                              : Advanced Video Codec\nFormat profile                           : &lt;a class=&quot;__cf_email__&quot; href=&quot;/cdn-cgi/l/email-protection&quot; data-cfemail=&quot;b6fedfd1def6fa859886&quot;&gt;[email&amp;#160;protected]&lt;/a&gt;&lt;script cf-hash='f9e31' type=&quot;text/javascript&quot;&gt;\n/* &lt;![CDATA[ */!function(){try{var t=&quot;currentScript&quot;in document?document.currentScript:function(){for(var t=document.getElementsByTagName(&quot;script&quot;),e=t.length;e--;)if(t[e].getAttribute(&quot;cf-hash&quot;))return t[e]}();if(t&amp;&amp;t.previousSibling){var e,r,n,i,c=t.previousSibling,a=c.getAttribute(&quot;data-cfemail&quot;);if(a){for(e=&quot;&quot;,r=parseInt(a.substr(0,2),16),n=2;a.length-n;n+=2)i=parseInt(a.substr(n,2),16)^r,e+=String.fromCharCode(i);e=document.createTextNode(e),c.parentNode.replaceChild(e,c)}}}catch(u){}}();/* ]]&gt; */&lt;/script&gt;\nFormat settings, CABAC                   : Yes\nFormat settings, ReFrames                : 4 frames\nCodec ID                                 : avc1\nCodec ID/Info                            : Advanced Video Coding\nDuration                                 : 58mn 13s\nBit rate mode                            : Variable\nBit rate                                 : 1 168 Kbps\nWidth                                    : 720 pixels\nHeight                                   : 368 pixels\nDisplay aspect ratio                     : 2.35:1\nOriginal display aspect ratio            : 2.35:1\nFrame rate mode                          : Variable\nFrame rate                               : 23.823 fps\nMinimum frame rate                       : 0.263 fps\nMaximum frame rate                       : 29.970 fps\nColor space                              : YUV\nChroma subsampling                       : 4:2:0\nBit depth                                : 8 bits\nScan type                                : Progressive\n\n\nAudio #1\nID                                       : 2\nFormat                                   : AC-3\nFormat/Info                              : Audio Coding 3\nMode extension                           : CM (complete main)\nFormat settings, Endianness              : Big\nCodec ID                                 : ac-3\nDuration                                 : 58mn 12s\nBit rate mode                            : Constant\nBit rate                                 : 448 Kbps\nChannel(s)                               : 6 channels\nChannel positions                        : Front: L C R, Side: L R, LFE\nSampling rate                            : 48.0 KHz\nBit depth                                : 16 bits\nCompression mode                         : Lossy\nDelay relative to video                  : 83ms\nStream size                              : 187 MiB (20%)\nLanguage                                 : Hindi\nEncoded date                             : UTC 2013-09-04 18:17:34\nTagged date                              : UTC 2013-09-04 18:35:26\n\nAudio #2\nID                                       : 3\nFormat                                   : AAC\nFormat/Info                              : Advanced Audio Codec\nFormat profile                           : LC\nCodec ID                                 : 40\nDuration                                 : 58mn 12s\nBit rate mode                            : Variable\nBit rate                                 : 311 Kbps\nMaximum bit rate                         : 412 Kbps\nChannel(s)                               : 2 channels\nChannel positions                        : Front: L R\nSampling rate                            : 48.0 KHz\nCompression mode                         : Lossy\nDelay relative to video                  : 83ms\nStream size                              : 129 MiB (14%)\nLanguage                                 : Hindi\nEncoded date                             : UTC 2013-09-04 18:17:34\nTagged date                              : UTC 2013-09-04 18:35:26\n\nAudio #3\nID                                       : 4\nFormat                                   : MPEG Audio\nFormat version                           : Version 1\nFormat profile                           : Layer 3\nCodec ID                                 : 69\nDuration                                 : 58mn 12s\nBit rate mode                            : Variable\nBit rate                                 : 314 Kbps\nMaximum bit rate                         : 318 Kbps\nChannel(s)                               : 2 channels\nSampling rate                            : 48.0 KHz\nCompression mode                         : Lossy\nDelay relative to video                  : 83ms\nStream size                              : 131 MiB (14%)\nWriting library                          : LAME3.98\nLanguage                                 : Hindi\nEncoded date                             : UTC 2013-09-04 18:17:34\nTagged date                              : UTC 2013-09-04 18:35:26\n","torrent":{"xt":"urn:btih:8c425443ed3a0424a26f76f217023c57402cb84e","amp;dn":"Mithya+2008+DVDRip+Hindi+%5BK9%5D","amp;tr":["udp%3A%2F%2Ftracker.openbittorrent.com%3A80","udp%3A%2F%2Fopen.demonii.com%3A1337","udp%3A%2F%2Ftracker.coppersurfer.tk%3A6969","udp%3A%2F%2Fexodus.desync.com%3A6969"],"infoHash":"8c425443ed3a0424a26f76f217023c57402cb84e","infoHashBuffer":{"type":"Buffer","data":[140,66,84,67,237,58,4,36,162,111,118,242,23,2,60,87,64,44,184,78]},"announce":[],"urlList":[]}}